# xmcd CD database file
#
# Track frame offsets:
#	150
#	11942
#	24557
#	36817
#	49717
#	64427
#	93342
#	107265
#	120375
#	136530
#	148762
#	169057
#	181485
#	195182
#	209102
#	222655
#	234930
#	250690
#
# Disc length: 3598 seconds
#
# Revision: 0
# Processed by: cddbd v1.5.2PL0 Copyright (c) Steve Scherf et al.
# Submitted via: CDex 1.51
#
DISCID=fb0e0c12
DTITLE=Kenton Stan - Opus in Pastels
DYEAR=1996
DGENRE=Jazz
TTITLE0=Artistry Jumps
TTITLE1=Opus In Pastels
TTITLE2=Cuban Carnival
TTITLE3=Blues In Riff
TTITLE4=Viva Prado
TTITLE5=Improvisation
TTITLE6=Dynaflow
TTITLE7=Painted Rhythm
TTITLE8=Peg O' My Heart
TTITLE9=Ecuador
TTITLE10=Capitol Punishment
TTITLE11=Lover
TTITLE12=Chorale For Brass, Piano and Bongo
TTITLE13=Abstraction
TTITLE14=Journey To Brazil
TTITLE15=Rhythm Incorporated
TTITLE16=Incident In Jazz
TTITLE17=Solitaire
EXTD=YEAR: 1996
EXTT0=
EXTT1=
EXTT2=
EXTT3=
EXTT4=
EXTT5=
EXTT6=
EXTT7=
EXTT8=
EXTT9=
EXTT10=
EXTT11=
EXTT12=
EXTT13=
EXTT14=
EXTT15=
EXTT16=
EXTT17=
PLAYORDER=
